<svg width="128" height="128" viewBox="0 0 128 128" fill="none" xmlns="http://www.w3.org/2000/svg">
<path opacity="0.85" d="M4 33.83H124V95.8H4V33.83Z" fill="#B7855F"/>
<path d="M124 34.96V18.24H4V34.97H15.98V94.68H4V111.77H124V94.67H112.02V34.96H124ZM113.35 26.02C113.35 25.11 114.09 24.37 115 24.37H117.18C118.09 24.37 118.83 25.11 118.83 26.02V30.03C118.83 30.94 118.09 31.68 117.18 31.68H115C114.09 31.68 113.35 30.94 113.35 30.03V26.02ZM14.65 30.03C14.65 30.94 13.91 31.68 13 31.68H10.82C9.91 31.68 9.17 30.94 9.17 30.03V26.02C9.17 25.11 9.91 24.37 10.82 24.37H13C13.91 24.37 14.65 25.11 14.65 26.02V30.03V30.03ZM14.65 103.62C14.65 104.53 13.91 105.27 13 105.27H10.82C9.91 105.27 9.17 104.53 9.17 103.62V99.6C9.17 98.69 9.91 97.95 10.82 97.95H13C13.91 97.95 14.65 98.69 14.65 99.6V103.62V103.62ZM113.35 99.6C113.35 98.69 114.09 97.95 115 97.95H117.18C118.09 97.95 118.83 98.69 118.83 99.6V103.61C118.83 104.52 118.09 105.26 117.18 105.26H115C114.09 105.26 113.35 104.52 113.35 103.61V99.6V99.6ZM101.77 26.02C101.77 25.11 102.51 24.37 103.42 24.37H105.6C106.51 24.37 107.25 25.11 107.25 26.02V30.03C107.25 30.94 106.51 31.68 105.6 31.68H103.42C102.51 31.68 101.77 30.94 101.77 30.03V26.02ZM90.2 26.02C90.2 25.11 90.94 24.37 91.85 24.37H94.03C94.94 24.37 95.68 25.11 95.68 26.02V30.03C95.68 30.94 94.94 31.68 94.03 31.68H91.85C90.94 31.68 90.2 30.94 90.2 30.03V26.02ZM78.62 26.02C78.62 25.11 79.36 24.37 80.27 24.37H82.45C83.36 24.37 84.1 25.11 84.1 26.02V30.03C84.1 30.94 83.36 31.68 82.45 31.68H80.27C79.36 31.68 78.62 30.94 78.62 30.03V26.02ZM67.05 26.02C67.05 25.11 67.79 24.37 68.7 24.37H70.88C71.79 24.37 72.53 25.11 72.53 26.02V30.03C72.53 30.94 71.79 31.68 70.88 31.68H68.7C67.79 31.68 67.05 30.94 67.05 30.03V26.02V26.02ZM55.47 26.02C55.47 25.11 56.21 24.37 57.12 24.37H59.3C60.21 24.37 60.95 25.11 60.95 26.02V30.03C60.95 30.94 60.21 31.68 59.3 31.68H57.12C56.21 31.68 55.47 30.94 55.47 30.03V26.02ZM43.9 26.02C43.9 25.11 44.64 24.37 45.55 24.37H47.73C48.64 24.37 49.38 25.11 49.38 26.02V30.03C49.38 30.94 48.64 31.68 47.73 31.68H45.55C44.64 31.68 43.9 30.94 43.9 30.03V26.02ZM32.32 26.02C32.32 25.11 33.06 24.37 33.97 24.37H36.15C37.06 24.37 37.8 25.11 37.8 26.02V30.03C37.8 30.94 37.06 31.68 36.15 31.68H33.97C33.06 31.68 32.32 30.94 32.32 30.03V26.02ZM20.75 26.02C20.75 25.11 21.49 24.37 22.4 24.37H24.58C25.49 24.37 26.23 25.11 26.23 26.02V30.03C26.23 30.94 25.49 31.68 24.58 31.68H22.4C21.49 31.68 20.75 30.94 20.75 30.03V26.02V26.02ZM26.23 103.62C26.23 104.53 25.49 105.27 24.58 105.27H22.4C21.49 105.27 20.75 104.53 20.75 103.62V99.6C20.75 98.69 21.49 97.95 22.4 97.95H24.58C25.49 97.95 26.23 98.69 26.23 99.6V103.62V103.62ZM37.8 103.62C37.8 104.53 37.06 105.27 36.15 105.27H33.97C33.06 105.27 32.32 104.53 32.32 103.62V99.6C32.32 98.69 33.06 97.95 33.97 97.95H36.15C37.06 97.95 37.8 98.69 37.8 99.6V103.62V103.62ZM49.38 103.62C49.38 104.53 48.64 105.27 47.73 105.27H45.55C44.64 105.27 43.9 104.53 43.9 103.62V99.6C43.9 98.69 44.64 97.95 45.55 97.95H47.73C48.64 97.95 49.38 98.69 49.38 99.6V103.62V103.62ZM60.95 103.62C60.95 104.53 60.21 105.27 59.3 105.27H57.12C56.21 105.27 55.47 104.53 55.47 103.62V99.6C55.47 98.69 56.21 97.95 57.12 97.95H59.3C60.21 97.95 60.95 98.69 60.95 99.6V103.62V103.62ZM72.53 103.62C72.53 104.53 71.79 105.27 70.88 105.27H68.7C67.79 105.27 67.05 104.53 67.05 103.62V99.6C67.05 98.69 67.79 97.95 68.7 97.95H70.88C71.79 97.95 72.53 98.69 72.53 99.6V103.62V103.62ZM84.1 103.62C84.1 104.53 83.36 105.27 82.45 105.27H80.27C79.36 105.27 78.62 104.53 78.62 103.62V99.6C78.62 98.69 79.36 97.95 80.27 97.95H82.45C83.36 97.95 84.1 98.69 84.1 99.6V103.62V103.62ZM95.68 103.62C95.68 104.53 94.94 105.27 94.03 105.27H91.85C90.94 105.27 90.2 104.53 90.2 103.62V99.6C90.2 98.69 90.94 97.95 91.85 97.95H94.03C94.94 97.95 95.68 98.69 95.68 99.6V103.62V103.62ZM107.25 103.62C107.25 104.53 106.51 105.27 105.6 105.27H103.42C102.51 105.27 101.77 104.53 101.77 103.62V99.6C101.77 98.69 102.51 97.95 103.42 97.95H105.6C106.51 97.95 107.25 98.69 107.25 99.6V103.62V103.62ZM108.04 94.67H19.96V34.96H108.04V94.67V94.67Z" fill="url(#paint0_linear_1_7)"/>
<path d="M4.66003 18.24H124" stroke="#757575" stroke-width="0.959" stroke-miterlimit="10"/>
<path d="M20.29 35.15H108.37V94.86H20.29V35.15Z" fill="url(#paint1_linear_1_7)"/>
<defs>
<linearGradient id="paint0_linear_1_7" x1="18.198" y1="78.961" x2="87.209" y2="57.926" gradientUnits="userSpaceOnUse">
<stop stop-color="#424242"/>
<stop offset="0.394" stop-color="#44545B"/>
<stop offset="0.517" stop-color="#455A64"/>
<stop offset="0.741" stop-color="#445157"/>
<stop offset="1" stop-color="#424242"/>
</linearGradient>
<linearGradient id="paint1_linear_1_7" x1="27.017" y1="80.859" x2="88.012" y2="54.936" gradientUnits="userSpaceOnUse">
<stop stop-color="#FFCC80" stop-opacity="0"/>
<stop offset="0.486" stop-color="#FFCC80" stop-opacity="0.4"/>
<stop offset="1" stop-color="#FFCC80" stop-opacity="0"/>
</linearGradient>
</defs>
</svg>
